<svg xmlns="http://www.w3.org/2000/svg" width="1800" height="940" viewBox="0 0 900 470"><rect width="100%" height="100%" fill="#fff"/>
<g transform="translate(25,10)"><rect x="10" y="10" width="80" height="10" fill="#111"/><rect x="10" y="28" width="80" height="62" fill="#111"/></g><text x="25" y="128" font-family="Liberation Sans" font-size="9" fill="#555">S1 bar over block</text>
<g transform="translate(129,18) scale(.16)"><rect x="10" y="10" width="80" height="10" fill="#111"/><rect x="10" y="28" width="80" height="62" fill="#111"/></g><g transform="translate(129,40) scale(.24)"><rect x="10" y="10" width="80" height="10" fill="#111"/><rect x="10" y="28" width="80" height="62" fill="#111"/></g>
<g transform="translate(175,10)"><rect x="5" y="22" width="90" height="7" fill="#111"/><rect x="5" y="36" width="50" height="50" fill="#111"/></g><text x="175" y="128" font-family="Liberation Sans" font-size="9" fill="#555">S2 long horizon + block</text>
<g transform="translate(279,18) scale(.16)"><rect x="5" y="22" width="90" height="7" fill="#111"/><rect x="5" y="36" width="50" height="50" fill="#111"/></g><g transform="translate(279,40) scale(.24)"><rect x="5" y="22" width="90" height="7" fill="#111"/><rect x="5" y="36" width="50" height="50" fill="#111"/></g>
<g transform="translate(325,10)"><rect x="10" y="10" width="80" height="80" fill="#111"/><rect x="10" y="32" width="80" height="5" fill="#fff"/></g><text x="325" y="128" font-family="Liberation Sans" font-size="9" fill="#555">S3 split square</text>
<g transform="translate(429,18) scale(.16)"><rect x="10" y="10" width="80" height="80" fill="#111"/><rect x="10" y="32" width="80" height="5" fill="#fff"/></g><g transform="translate(429,40) scale(.24)"><rect x="10" y="10" width="80" height="80" fill="#111"/><rect x="10" y="32" width="80" height="5" fill="#fff"/></g>
<g transform="translate(475,10)"><rect x="5" y="15" width="70" height="70" fill="#111"/><rect x="5" y="33" width="70" height="4" fill="#fff"/><rect x="75" y="33" width="20" height="4" fill="#111"/></g><text x="475" y="128" font-family="Liberation Sans" font-size="9" fill="#555">S4 cut + line out</text>
<g transform="translate(579,18) scale(.16)"><rect x="5" y="15" width="70" height="70" fill="#111"/><rect x="5" y="33" width="70" height="4" fill="#fff"/><rect x="75" y="33" width="20" height="4" fill="#111"/></g><g transform="translate(579,40) scale(.24)"><rect x="5" y="15" width="70" height="70" fill="#111"/><rect x="5" y="33" width="70" height="4" fill="#fff"/><rect x="75" y="33" width="20" height="4" fill="#111"/></g>
<g transform="translate(625,10)"><g fill="none" stroke="#111" stroke-width="5"><rect x="12.5" y="12.5" width="75" height="75"/><line x1="42" y1="12.5" x2="42" y2="87.5"/><line x1="42" y1="58" x2="87.5" y2="58"/><line x1="12.5" y1="40" x2="42" y2="40"/></g><rect x="42" y="58" width="45.5" height="29.5" fill="#111"/></g><text x="625" y="128" font-family="Liberation Sans" font-size="9" fill="#555">S5 parcels 1 filled</text>
<g transform="translate(729,18) scale(.16)"><g fill="none" stroke="#111" stroke-width="5"><rect x="12.5" y="12.5" width="75" height="75"/><line x1="42" y1="12.5" x2="42" y2="87.5"/><line x1="42" y1="58" x2="87.5" y2="58"/><line x1="12.5" y1="40" x2="42" y2="40"/></g><rect x="42" y="58" width="45.5" height="29.5" fill="#111"/></g><g transform="translate(729,40) scale(.24)"><g fill="none" stroke="#111" stroke-width="5"><rect x="12.5" y="12.5" width="75" height="75"/><line x1="42" y1="12.5" x2="42" y2="87.5"/><line x1="42" y1="58" x2="87.5" y2="58"/><line x1="12.5" y1="40" x2="42" y2="40"/></g><rect x="42" y="58" width="45.5" height="29.5" fill="#111"/></g>
<g transform="translate(775,10)"><rect x="10" y="10" width="80" height="80" fill="#111"/><rect x="42" y="10" width="5" height="80" fill="#fff"/><rect x="10" y="58" width="80" height="5" fill="#fff"/></g><text x="775" y="128" font-family="Liberation Sans" font-size="9" fill="#555">S6 offset cross gaps</text>
<g transform="translate(879,18) scale(.16)"><rect x="10" y="10" width="80" height="80" fill="#111"/><rect x="42" y="10" width="5" height="80" fill="#fff"/><rect x="10" y="58" width="80" height="5" fill="#fff"/></g><g transform="translate(879,40) scale(.24)"><rect x="10" y="10" width="80" height="80" fill="#111"/><rect x="42" y="10" width="5" height="80" fill="#fff"/><rect x="10" y="58" width="80" height="5" fill="#fff"/></g>
<g transform="translate(25,160)"><rect x="10" y="10" width="80" height="80" fill="#111"/><rect x="10" y="36" width="80" height="5" fill="#fff"/><rect x="56" y="41" width="5" height="49" fill="#fff"/></g><text x="25" y="278" font-family="Liberation Sans" font-size="9" fill="#555">S7 3 fields</text>
<g transform="translate(129,168) scale(.16)"><rect x="10" y="10" width="80" height="80" fill="#111"/><rect x="10" y="36" width="80" height="5" fill="#fff"/><rect x="56" y="41" width="5" height="49" fill="#fff"/></g><g transform="translate(129,190) scale(.24)"><rect x="10" y="10" width="80" height="80" fill="#111"/><rect x="10" y="36" width="80" height="5" fill="#fff"/><rect x="56" y="41" width="5" height="49" fill="#fff"/></g>
<g transform="translate(175,160)"><rect x="18" y="12" width="17" height="76" fill="#111"/><rect x="65" y="12" width="17" height="76" fill="#111"/><rect x="35" y="30" width="30" height="13" fill="#111"/></g><text x="175" y="278" font-family="Liberation Sans" font-size="9" fill="#555">S8 high-bar H</text>
<g transform="translate(279,168) scale(.16)"><rect x="18" y="12" width="17" height="76" fill="#111"/><rect x="65" y="12" width="17" height="76" fill="#111"/><rect x="35" y="30" width="30" height="13" fill="#111"/></g><g transform="translate(279,190) scale(.24)"><rect x="18" y="12" width="17" height="76" fill="#111"/><rect x="65" y="12" width="17" height="76" fill="#111"/><rect x="35" y="30" width="30" height="13" fill="#111"/></g>
<g transform="translate(325,160)"><rect x="10" y="10" width="80" height="80" fill="#111"/><circle cx="50" cy="50" r="36" fill="#fff"/><circle cx="50" cy="50" r="30" fill="#111"/></g><text x="325" y="278" font-family="Liberation Sans" font-size="9" fill="#555">S9 pivot circle</text>
<g transform="translate(429,168) scale(.16)"><rect x="10" y="10" width="80" height="80" fill="#111"/><circle cx="50" cy="50" r="36" fill="#fff"/><circle cx="50" cy="50" r="30" fill="#111"/></g><g transform="translate(429,190) scale(.24)"><rect x="10" y="10" width="80" height="80" fill="#111"/><circle cx="50" cy="50" r="36" fill="#fff"/><circle cx="50" cy="50" r="30" fill="#111"/></g>
<g transform="translate(475,160)"><rect x="10" y="78" width="80" height="8" fill="#111"/><rect x="46" y="18" width="8" height="60" fill="#111"/></g><text x="475" y="278" font-family="Liberation Sans" font-size="9" fill="#555">S10 post in ground</text>
<g transform="translate(579,168) scale(.16)"><rect x="10" y="78" width="80" height="8" fill="#111"/><rect x="46" y="18" width="8" height="60" fill="#111"/></g><g transform="translate(579,190) scale(.24)"><rect x="10" y="78" width="80" height="8" fill="#111"/><rect x="46" y="18" width="8" height="60" fill="#111"/></g>
<g transform="translate(625,160)"><rect x="8" y="60" width="84" height="7" fill="#111"/><circle cx="68" cy="36" r="8" fill="#111"/></g><text x="625" y="278" font-family="Liberation Sans" font-size="9" fill="#555">S11 point over horizon</text>
<g transform="translate(729,168) scale(.16)"><rect x="8" y="60" width="84" height="7" fill="#111"/><circle cx="68" cy="36" r="8" fill="#111"/></g><g transform="translate(729,190) scale(.24)"><rect x="8" y="60" width="84" height="7" fill="#111"/><circle cx="68" cy="36" r="8" fill="#111"/></g>
<g transform="translate(775,160)"><path d="M10 10H62V38H90V90H10Z" fill="#111"/><rect x="68" y="10" width="22" height="22" fill="#111"/></g><text x="775" y="278" font-family="Liberation Sans" font-size="9" fill="#555">S12 square, corner found</text>
<g transform="translate(879,168) scale(.16)"><path d="M10 10H62V38H90V90H10Z" fill="#111"/><rect x="68" y="10" width="22" height="22" fill="#111"/></g><g transform="translate(879,190) scale(.24)"><path d="M10 10H62V38H90V90H10Z" fill="#111"/><rect x="68" y="10" width="22" height="22" fill="#111"/></g>
<g transform="translate(25,310)"><rect x="12.5" y="12.5" width="75" height="75" fill="none" stroke="#111" stroke-width="5"/><rect x="12.5" y="34" width="75" height="53.5" fill="#111"/></g><text x="25" y="428" font-family="Liberation Sans" font-size="9" fill="#555">S13 horizon frame</text>
<g transform="translate(129,318) scale(.16)"><rect x="12.5" y="12.5" width="75" height="75" fill="none" stroke="#111" stroke-width="5"/><rect x="12.5" y="34" width="75" height="53.5" fill="#111"/></g><g transform="translate(129,340) scale(.24)"><rect x="12.5" y="12.5" width="75" height="75" fill="none" stroke="#111" stroke-width="5"/><rect x="12.5" y="34" width="75" height="53.5" fill="#111"/></g>
<g transform="translate(175,310)"><rect x="10" y="62" width="80" height="5" fill="#111"/><rect x="10" y="10" width="80" height="44" fill="#111"/></g><text x="175" y="428" font-family="Liberation Sans" font-size="9" fill="#555">S14 ground block + section</text>
<g transform="translate(279,318) scale(.16)"><rect x="10" y="62" width="80" height="5" fill="#111"/><rect x="10" y="10" width="80" height="44" fill="#111"/></g><g transform="translate(279,340) scale(.24)"><rect x="10" y="62" width="80" height="5" fill="#111"/><rect x="10" y="10" width="80" height="44" fill="#111"/></g>
<g transform="translate(325,310)"><rect x="8" y="14" width="46" height="6" fill="#111"/><rect x="46" y="38" width="46" height="46" fill="#111"/></g><text x="325" y="428" font-family="Liberation Sans" font-size="9" fill="#555">S15 plan/section offset</text>
<g transform="translate(429,318) scale(.16)"><rect x="8" y="14" width="46" height="6" fill="#111"/><rect x="46" y="38" width="46" height="46" fill="#111"/></g><g transform="translate(429,340) scale(.24)"><rect x="8" y="14" width="46" height="6" fill="#111"/><rect x="46" y="38" width="46" height="46" fill="#111"/></g>
<g transform="translate(475,310)"><rect x="20" y="20" width="60" height="70" fill="#111"/><rect x="5" y="34" width="90" height="5" fill="#111"/><rect x="20" y="30" width="60" height="4" fill="#fff"/><rect x="20" y="39" width="60" height="4" fill="#fff"/></g><text x="475" y="428" font-family="Liberation Sans" font-size="9" fill="#555">S16 level (rule thru block)</text>
<g transform="translate(579,318) scale(.16)"><rect x="20" y="20" width="60" height="70" fill="#111"/><rect x="5" y="34" width="90" height="5" fill="#111"/><rect x="20" y="30" width="60" height="4" fill="#fff"/><rect x="20" y="39" width="60" height="4" fill="#fff"/></g><g transform="translate(579,340) scale(.24)"><rect x="20" y="20" width="60" height="70" fill="#111"/><rect x="5" y="34" width="90" height="5" fill="#111"/><rect x="20" y="30" width="60" height="4" fill="#fff"/><rect x="20" y="39" width="60" height="4" fill="#fff"/></g>
</svg>