<svg xmlns="http://www.w3.org/2000/svg" viewBox="0 0 300 150"><polygon points="0,150 0.0,148.1 0.6,147.6 1.3,147.0 1.9,146.5 2.5,146.0 3.1,146.0 3.8,146.0 4.4,146.1 5.0,146.1 5.6,146.1 6.3,146.1 6.9,146.1 7.5,146.1 8.1,146.1 8.8,146.0 9.4,145.9 10.0,145.9 10.6,145.8 11.3,145.7 11.9,145.6 12.5,145.6 13.2,145.5 13.8,145.4 14.4,145.4 15.0,145.4 15.7,145.3 16.3,145.3 16.9,145.3 17.5,145.3 18.2,145.3 18.8,145.2 19.4,145.2 20.0,145.2 20.7,145.1 21.3,145.1 21.9,145.1 22.5,145.1 23.2,145.1 23.8,145.1 24.4,145.0 25.1,145.0 25.7,145.0 26.3,144.9 26.9,144.8 27.6,144.8 28.2,144.7 28.8,144.7 29.4,144.7 30.1,144.8 30.7,144.8 31.3,144.9 31.9,145.0 32.6,145.0 33.2,145.1 33.8,145.2 34.4,145.2 35.1,145.2 35.7,145.3 36.3,145.3 37.0,145.3 37.6,145.4 38.2,145.4 38.8,145.5 39.5,145.5 40.1,145.6 40.7,145.6 41.3,145.7 42.0,145.7 42.6,145.8 43.2,145.8 43.8,145.8 44.5,145.9 45.1,145.9 45.7,146.0 46.3,146.1 47.0,146.2 47.6,146.3 48.2,146.4 48.9,146.5 49.5,146.6 50.1,146.7 50.7,146.9 51.4,147.0 52.0,147.1 52.6,147.1 53.2,147.2 53.9,147.3 54.5,147.4 55.1,147.4 55.7,147.5 56.4,147.6 57.0,147.6 57.6,147.7 58.2,147.7 58.9,147.8 59.5,147.9 60.1,148.0 60.8,148.1 61.4,148.2 62.0,148.3 62.6,148.4 63.3,148.5 63.9,148.6 64.5,148.8 65.1,148.9 65.8,149.0 66.4,149.1 67.0,149.2 67.6,149.3 68.3,149.4 68.9,149.5 69.5,149.6 70.1,149.7 70.8,149.8 71.4,149.9 72.0,150.0 72.7,150.0 73.3,150.0 73.9,150.0 74.5,149.9 75.2,149.8 75.8,149.7 76.4,149.5 77.0,149.4 77.7,149.2 78.3,149.1 78.9,148.9 79.5,148.8 80.2,148.6 80.8,148.5 81.4,148.3 82.0,148.2 82.7,148.1 83.3,147.9 83.9,147.8 84.6,147.6 85.2,147.5 85.8,147.4 86.4,147.2 87.1,147.1 87.7,147.0 88.3,146.8 88.9,146.7 89.6,146.6 90.2,146.4 90.8,146.3 91.4,146.2 92.1,146.1 92.7,146.0 93.3,145.9 93.9,145.8 94.6,145.7 95.2,145.6 95.8,145.6 96.5,145.6 97.1,145.5 97.7,145.5 98.3,145.4 99.0,145.3 99.6,145.3 100.2,145.2 100.8,145.1 101.5,145.1 102.1,145.0 102.7,144.9 103.3,144.9 104.0,144.8 104.6,144.7 105.2,144.7 105.8,144.6 106.5,144.5 107.1,144.4 107.7,144.3 108.4,144.2 109.0,144.1 109.6,144.0 110.2,143.9 110.9,143.8 111.5,143.8 112.1,143.7 112.7,143.7 113.4,143.6 114.0,143.6 114.6,143.6 115.2,143.5 115.9,143.5 116.5,143.4 117.1,143.4 117.7,143.3 118.4,143.2 119.0,143.1 119.6,143.1 120.3,143.0 120.9,142.9 121.5,142.9 122.1,142.8 122.8,142.7 123.4,142.6 124.0,142.6 124.6,142.4 125.3,142.3 125.9,142.2 126.5,142.0 127.1,141.8 127.8,141.7 128.4,141.4 129.0,141.2 129.6,141.0 130.3,140.7 130.9,140.4 131.5,140.1 132.2,139.8 132.8,139.5 133.4,139.1 134.0,138.8 134.7,138.4 135.3,138.0 135.9,137.6 136.5,137.1 137.2,136.6 137.8,136.1 138.4,135.6 139.0,135.0 139.7,134.4 140.3,133.8 140.9,133.1 141.5,132.4 142.2,131.7 142.8,130.9 143.4,130.2 144.1,129.3 144.7,128.5 145.3,127.6 145.9,126.7 146.6,125.8 147.2,124.8 147.8,123.8 148.4,122.8 149.1,121.7 149.7,120.6 150.3,119.4 150.9,118.2 151.6,116.9 152.2,115.7 152.8,114.4 153.4,113.1 154.1,111.7 154.7,110.3 155.3,108.9 155.9,107.5 156.6,106.0 157.2,104.5 157.8,103.0 158.5,101.4 159.1,99.7 159.7,98.1 160.3,96.3 161.0,94.6 161.6,92.8 162.2,91.0 162.8,89.1 163.5,87.3 164.1,85.5 164.7,83.6 165.3,81.8 166.0,79.9 166.6,78.0 167.2,76.2 167.8,74.3 168.5,72.3 169.1,70.4 169.7,68.5 170.4,66.5 171.0,64.6 171.6,62.7 172.2,60.7 172.9,58.8 173.5,56.9 174.1,55.0 174.7,53.1 175.4,51.2 176.0,49.3 176.6,47.4 177.2,45.6 177.9,43.7 178.5,41.9 179.1,40.1 179.7,38.2 180.4,36.5 181.0,34.7 181.6,33.0 182.3,31.4 182.9,29.8 183.5,28.3 184.1,26.9 184.8,25.5 185.4,24.2 186.0,22.9 186.6,21.8 187.3,20.6 187.9,19.6 188.5,18.6 189.1,17.6 189.8,16.7 190.4,15.9 191.0,15.1 191.6,14.5 192.3,13.9 192.9,13.3 193.5,12.9 194.2,12.6 194.8,12.3 195.4,12.1 196.0,12.0 196.7,12.0 197.3,12.1 197.9,12.2 198.5,12.4 199.2,12.6 199.8,12.9 200.4,13.2 201.0,13.6 201.7,14.1 202.3,14.7 202.9,15.3 203.5,15.9 204.2,16.6 204.8,17.4 205.4,18.1 206.1,18.9 206.7,19.6 207.3,20.4 207.9,21.1 208.6,21.7 209.2,22.4 209.8,23.1 210.4,23.7 211.1,24.5 211.7,25.2 212.3,26.1 212.9,27.0 213.6,28.0 214.2,29.1 214.8,30.3 215.4,31.6 216.1,33.0 216.7,34.3 217.3,35.7 218.0,37.1 218.6,38.4 219.2,39.7 219.8,40.9 220.5,42.0 221.1,43.1 221.7,44.1 222.3,45.0 223.0,46.0 223.6,46.8 224.2,47.7 224.8,48.7 225.5,49.6 226.1,50.6 226.7,51.6 227.3,52.6 228.0,53.7 228.6,54.8 229.2,55.9 229.9,57.0 230.5,58.1 231.1,59.2 231.7,60.3 232.4,61.4 233.0,62.4 233.6,63.5 234.2,64.6 234.9,65.8 235.5,67.0 236.1,68.3 236.7,69.6 237.4,71.0 238.0,72.4 238.6,73.8 239.2,75.2 239.9,76.6 240.5,78.0 241.1,79.3 241.8,80.5 242.4,81.8 243.0,83.0 243.6,84.1 244.3,85.3 244.9,86.5 245.5,87.6 246.1,88.8 246.8,90.0 247.4,91.2 248.0,92.4 248.6,93.7 249.3,94.9 249.9,96.1 250.5,97.4 251.1,98.6 251.8,99.7 252.4,100.9 253.0,102.1 253.7,103.2 254.3,104.3 254.9,105.4 255.5,106.4 256.2,107.4 256.8,108.4 257.4,109.3 258.0,110.2 258.7,111.0 259.3,111.8 259.9,112.6 260.5,113.4 261.2,114.2 261.8,115.0 262.4,115.8 263.0,116.6 263.7,117.3 264.3,118.1 264.9,118.9 265.6,119.6 266.2,120.4 266.8,121.1 267.4,121.8 268.1,122.5 268.7,123.1 269.3,123.8 269.9,124.4 270.6,125.0 271.2,125.6 271.8,126.2 272.4,126.8 273.1,127.3 273.7,127.9 274.3,128.5 274.9,129.1 275.6,129.6 276.2,130.2 276.8,130.8 277.5,131.3 278.1,131.8 278.7,132.3 279.3,132.7 280.0,133.1 280.6,133.5 281.2,133.8 281.8,134.2 282.5,134.5 283.1,134.8 283.7,135.1 284.3,135.4 285.0,135.8 285.6,136.1 286.2,136.5 286.8,136.8 287.5,137.2 288.1,137.5 288.7,137.8 289.4,138.2 290.0,138.5 290.6,138.8 291.2,139.1 291.9,139.3 292.5,139.6 293.1,139.9 293.7,140.1 294.4,140.4 295.0,140.6 295.6,140.9 296.2,141.1 296.9,141.3 297.5,141.4 298.1,142.6 298.7,143.7 299.4,144.8 300.0,145.9 300,150" fill="#0E2423"/></svg>